<svg version="1.1" id="Layer_1" xmlns="http://www.w3.org/2000/svg" xmlns:xlink="http://www.w3.org/1999/xlink" x="0px" y="0px"
	 width="100%" viewBox="0 0 50 60" enable-background="new 0 0 50 60" xml:space="preserve">
<path fill="#000000" opacity="1.000000" stroke="none" 
	d="
M2.000000,1.000000 
	C8.354398,1.000000 14.708797,1.000000 21.812450,1.283659 
	C20.144125,3.774255 17.578735,5.847232 15.390360,8.261894 
	C14.639857,9.090004 14.832741,10.773092 14.594628,12.065575 
	C15.882399,12.048783 17.305225,12.373522 18.424591,11.930872 
	C19.905628,11.345200 21.149168,10.158941 23.000000,8.882340 
	C23.000000,17.188259 22.841181,24.523033 23.089174,31.844025 
	C23.172035,34.290154 21.223764,38.630131 25.425617,38.719471 
	C29.792421,38.812317 27.835905,34.417896 27.909994,32.004082 
	C28.150661,24.163155 28.000000,16.310215 28.000000,8.461902 
	C29.774973,8.882848 30.208586,10.018963 31.007334,10.410845 
	C32.656349,11.219885 34.500023,11.632168 36.263622,12.207662 
	C35.650387,10.444210 35.367958,8.452488 34.345806,6.971205 
	C32.840584,4.789860 30.807972,2.972435 29.000000,1.000000 
	C35.687645,1.000000 42.375290,1.000000 49.531467,1.468537 
	C49.944736,8.624012 49.889473,15.310950 49.530422,21.834911 
	C46.084442,14.880028 40.126225,16.035221 34.246506,16.117258 
	C34.246506,17.825985 34.246506,19.219669 34.246506,20.999878 
	C35.610146,20.999878 36.739304,20.982115 37.867760,21.002823 
	C44.197987,21.118986 44.995209,21.917019 44.998970,28.145575 
	C45.003296,35.302376 44.916012,42.460564 45.033833,49.615429 
	C45.095833,53.380470 43.544624,55.065281 39.732582,55.029160 
	C30.246504,54.939281 20.757467,54.902309 11.272922,55.052586 
	C7.992857,55.104557 6.888523,53.900188 6.948631,50.673096 
	C7.103583,42.354118 7.145535,34.026592 6.931735,25.710222 
	C6.840820,22.173843 8.405894,20.991369 11.558836,21.001297 
	C13.318880,21.006838 15.078956,21.002295 17.151621,21.002295 
	C16.931025,18.900669 16.784700,17.506620 16.646879,16.193596 
	C11.050939,15.616802 6.057581,15.789752 2.088806,19.535543 
	C2.007833,13.048684 2.003917,7.024342 2.000000,1.000000 
z"/>
<path fill="#0679FE" opacity="1.000000" stroke="none" 
	d="
M28.562500,1.000000 
	C30.807972,2.972435 32.840584,4.789860 34.345806,6.971205 
	C35.367958,8.452488 35.650387,10.444210 36.263622,12.207662 
	C34.500023,11.632168 32.656349,11.219885 31.007334,10.410845 
	C30.208586,10.018963 29.774973,8.882848 28.000000,8.461902 
	C28.000000,16.310215 28.150661,24.163155 27.909994,32.004082 
	C27.835905,34.417896 29.792421,38.812317 25.425617,38.719471 
	C21.223764,38.630131 23.172035,34.290154 23.089174,31.844025 
	C22.841181,24.523033 23.000000,17.188259 23.000000,8.882340 
	C21.149168,10.158941 19.905628,11.345200 18.424591,11.930872 
	C17.305225,12.373522 15.882399,12.048783 14.594628,12.065575 
	C14.832741,10.773092 14.639857,9.090004 15.390360,8.261894 
	C17.578735,5.847232 20.144125,3.774255 22.280853,1.283659 
	C24.041666,1.000000 26.083334,1.000000 28.562500,1.000000 
z"/>
<path fill="#FFFFFF" opacity="1.000000" stroke="none" 
	d="
M1.500000,1.000000 
	C2.003917,7.024342 2.007833,13.048684 2.017519,19.998302 
	C2.015654,31.887293 2.040366,42.851177 1.983268,53.814636 
	C1.962597,57.783806 3.659253,59.990765 7.761176,59.994755 
	C19.555538,60.006222 31.350449,60.063694 43.144028,59.967075 
	C47.787968,59.929031 49.956341,57.652233 49.972172,52.884609 
	C50.006359,42.589302 49.889359,32.293491 49.834209,21.997889 
	C49.889473,15.310950 49.944736,8.624012 50.000000,1.468537 
	C50.333332,2.162294 50.953423,3.323662 50.957172,4.487020 
	C51.017761,23.265251 51.000000,42.043736 51.000000,60.911079 
	C34.441628,60.911079 17.882618,60.911079 1.000000,60.911079 
	C1.000000,41.001163 1.000000,21.000582 1.500000,1.000000 
z"/>
<path fill="#0679FE" opacity="1.000000" stroke="none" 
	d="
M49.530422,21.834911 
	C49.889359,32.293491 50.006359,42.589302 49.972172,52.884609 
	C49.956341,57.652233 47.787968,59.929031 43.144028,59.967075 
	C31.350449,60.063694 19.555538,60.006222 7.761176,59.994755 
	C3.659253,59.990765 1.962597,57.783806 1.983268,53.814636 
	C2.040366,42.851177 2.015654,31.887293 2.094576,20.460819 
	C6.057581,15.789752 11.050939,15.616802 16.646879,16.193596 
	C16.784700,17.506620 16.931025,18.900669 17.151621,21.002295 
	C15.078956,21.002295 13.318880,21.006838 11.558836,21.001297 
	C8.405894,20.991369 6.840820,22.173843 6.931735,25.710222 
	C7.145535,34.026592 7.103583,42.354118 6.948631,50.673096 
	C6.888523,53.900188 7.992857,55.104557 11.272922,55.052586 
	C20.757467,54.902309 30.246504,54.939281 39.732582,55.029160 
	C43.544624,55.065281 45.095833,53.380470 45.033833,49.615429 
	C44.916012,42.460564 45.003296,35.302376 44.998970,28.145575 
	C44.995209,21.917019 44.197987,21.118986 37.867760,21.002823 
	C36.739304,20.982115 35.610146,20.999878 34.246506,20.999878 
	C34.246506,19.219669 34.246506,17.825985 34.246506,16.117258 
	C40.126225,16.035221 46.084442,14.880028 49.530422,21.834911 
z"/>
</svg>